<svg t="1653666807109" class="icon" viewBox="0 0 1024 1024" version="1.1" xmlns="http://www.w3.org/2000/svg" p-id="8062" width="16" height="16"><path d="M511.931733 0C292.932267 0 98.167467 139.264 27.374933 346.453333L96.597333 370.0736C157.354667 192.443733 324.1984 73.181867 512 73.181867 729.361067 73.181867 910.336 232.0384 944.878933 439.773867L881.8688 397.7216 841.3184 458.5472 967.133867 542.446933C973.277867 546.474667 980.309333 548.590933 987.409067 548.590933 993.348267 548.590933 999.287467 547.157333 1004.680533 544.290133 1016.558933 537.941333 1024 525.5168 1024 512 1023.931733 229.649067 794.282667 0 511.931733 0L511.931733 0ZM511.931733 950.818133C294.638933 950.818133 113.664 791.9616 79.121067 584.226133L142.1312 626.2784 182.6816 565.4528 56.866133 481.553067C45.602133 474.043733 31.197867 473.429333 19.319467 479.778133 7.441067 486.058667 0 498.4832 0 512 0 794.350933 229.649067 1024 511.931733 1024 731.067733 1024 925.832533 884.736 996.5568 677.546667L927.3344 653.9264C866.7136 831.556267 699.8016 950.818133 511.931733 950.818133L511.931733 950.818133ZM475.409067 321.877333 731.409067 321.877333 731.409067 373.077333 475.409067 373.077333 475.409067 321.877333 475.409067 321.877333 475.409067 321.877333ZM292.590933 292.522667 402.295467 292.522667 402.295467 402.295467 292.590933 402.295467 292.590933 292.522667 292.590933 292.522667ZM475.409067 504.695467 731.409067 504.695467 731.409067 555.895467 475.409067 555.895467 475.409067 504.695467 475.409067 504.695467 475.409067 504.695467ZM292.590933 475.409067 402.295467 475.409067 402.295467 585.181867 292.590933 585.181867 292.590933 475.409067 292.590933 475.409067ZM475.409067 687.581867 731.409067 687.581867 731.409067 738.781867 475.409067 738.781867 475.409067 687.581867 475.409067 687.581867 475.409067 687.581867ZM292.590933 658.295467 402.295467 658.295467 402.295467 768 292.590933 768 292.590933 658.295467 292.590933 658.295467Z" p-id="8063" fill="#FF6A00"></path></svg>